<svg width="18" height="20" viewBox="0 0 18 20" fill="none" xmlns="http://www.w3.org/2000/svg">
<path d="M16.4488 5.48903C16.4293 5.18479 16.1776 4.94817 15.8727 4.94817H12.819V4.04597C12.819 2.23933 11.1055 0.76923 8.99991 0.76923C6.89429 0.76923 5.1808 2.23933 5.1808 4.04597V4.94817H2.12717C1.82218 4.94817 1.57053 5.18479 1.551 5.48903L0.731434 18.6178C0.721669 18.777 0.778009 18.9325 0.886933 19.049C0.995857 19.1647 1.14835 19.2308 1.30761 19.2308H16.6922C16.8515 19.2308 17.004 19.1647 17.1129 19.049C17.2218 18.9325 17.2782 18.777 17.2684 18.6178L16.4488 5.48903ZM6.33465 4.04597C6.33465 2.8756 7.53056 1.92308 8.99991 1.92308C10.4693 1.92308 11.6652 2.8756 11.6652 4.04597V4.94817H6.33465V4.04597ZM5.1808 6.10201V7.35502C5.1808 7.67353 5.43922 7.93194 5.75773 7.93194C6.07624 7.93194 6.33465 7.67353 6.33465 7.35502V6.10201H11.6652V7.35502C11.6652 7.67353 11.9236 7.93194 12.2421 7.93194C12.5606 7.93194 12.819 7.67353 12.819 7.35502V6.10201H15.3303L15.8302 14.1023H2.16966L2.66954 6.10201H5.1808ZM1.92134 18.0769L2.12163 14.8715H15.8782L16.0785 18.0769H1.92134Z" fill="#1D1D1B"/>
</svg>
