<svg width="56" height="57" viewBox="0 0 56 57" fill="none" xmlns="http://www.w3.org/2000/svg">
<g clip-path="url(#clip0_134_1230)">
<path d="M28.5126 56.4456C35.8599 56.4456 42.7654 53.5855 47.9691 48.3884C52.7964 43.5672 55.6437 37.1607 55.9873 30.3456C56.02 29.6755 55.4964 29.0872 54.8255 29.0545C54.1546 29.0218 53.5655 29.5448 53.5328 30.2149C53.2218 36.4089 50.62 42.2434 46.2182 46.6397C41.489 51.3629 35.189 53.9778 28.4962 53.9778C21.8035 53.9778 15.5034 51.3792 10.7743 46.6397C1.00513 36.8829 1.00513 20.9973 10.7743 11.2405C19.1034 2.92185 32.0635 1.53268 41.9145 7.7921L39.149 11.1751L47.0854 10.3743L46.2836 2.4479L43.4854 5.87995C32.6363 -1.18027 18.2525 0.306949 9.03973 9.50813C-1.69488 20.2292 -1.69488 37.651 9.03973 48.3721C14.2598 53.5855 21.1653 56.4456 28.5126 56.4456Z" fill="#232020"/>
<path d="M41.4889 23.3015C41.4889 23.2852 41.4889 23.2689 41.4725 23.2689C41.4725 23.2362 41.4562 23.2198 41.4562 23.1871C41.4562 23.1708 41.4398 23.1381 41.4398 23.1218C41.4398 23.1054 41.4234 23.0891 41.4234 23.0727C41.3907 22.991 41.358 22.9257 41.3089 22.8603L36.1052 15.228C35.8761 14.8848 35.4997 14.6887 35.0906 14.6887H21.9015C21.4924 14.6887 21.116 14.8848 20.8869 15.228L15.6832 22.8439C15.6342 22.9093 15.6014 22.991 15.5687 23.0564C15.5687 23.0727 15.5523 23.0891 15.5523 23.1054C15.536 23.1218 15.536 23.1545 15.536 23.1708C15.536 23.2035 15.5196 23.2198 15.5196 23.2525C15.5196 23.2689 15.5196 23.2852 15.5032 23.2852C15.4869 23.3669 15.4705 23.4486 15.4705 23.5304V41.9817C15.4705 42.6518 16.0269 43.2075 16.6978 43.2075H40.278C40.9489 43.2075 41.5052 42.6518 41.5052 41.9817V23.5467C41.5052 23.4486 41.5052 23.3669 41.4889 23.3015ZM22.556 17.1402H34.4361L37.9543 22.3046H19.0215L22.556 17.1402ZM39.0507 40.7723H17.9414V24.7724H39.067V40.7723H39.0507Z" fill="#232020"/>
</g>
<defs>
<clipPath id="clip0_134_1230">
<rect width="56" height="56" fill="white" transform="translate(0 0.5)"/>
</clipPath>
</defs>
</svg>
