<svg width="81" height="49" viewBox="0 0 81 49" fill="none" xmlns="http://www.w3.org/2000/svg">
<path d="M58.851 40.125L58.8158 41.1244L58.8334 41.125H58.851V40.125ZM57.3774 38.55L58.3768 38.5835L58.3774 38.5667V38.55H57.3774ZM57.3774 24.5125H58.3774V24.4958L58.3768 24.479L57.3774 24.5125ZM58.851 22.9375V21.9375H58.8334L58.8158 21.9381L58.851 22.9375ZM78.7256 22.9375L78.761 21.9381L78.7433 21.9375H78.7256V22.9375ZM79.3019 23.5625L78.3031 23.5146L78.3019 23.5386V23.5625H79.3019ZM79.3019 37H78.3019V37.0166L78.3025 37.0332L79.3019 37ZM76.3781 40.125V41.125H76.3959L76.4136 41.1244L76.3781 40.125ZM1 12.5625C0.447715 12.5625 0 13.0102 0 13.5625C0 14.1148 0.447715 14.5625 1 14.5625V12.5625ZM24.4906 14.5625C25.0429 14.5625 25.4906 14.1148 25.4906 13.5625C25.4906 13.0102 25.0429 12.5625 24.4906 12.5625V14.5625ZM2.56604 17.25C2.01375 17.25 1.56604 17.6977 1.56604 18.25C1.56604 18.8023 2.01375 19.25 2.56604 19.25V17.25ZM26.0566 19.25C26.6089 19.25 27.0566 18.8023 27.0566 18.25C27.0566 17.6977 26.6089 17.25 26.0566 17.25V19.25ZM7.26415 21.9375C6.71187 21.9375 6.26415 22.3852 6.26415 22.9375C6.26415 23.4898 6.71187 23.9375 7.26415 23.9375V21.9375ZM32.3208 23.9375C32.873 23.9375 33.3208 23.4898 33.3208 22.9375C33.3208 22.3852 32.873 21.9375 32.3208 21.9375V23.9375ZM10.3962 32.875C9.84394 32.875 9.39623 33.3227 9.39623 33.875C9.39623 34.4273 9.84394 34.875 10.3962 34.875V32.875ZM15.0943 34.875C15.6466 34.875 16.0943 34.4273 16.0943 33.875C16.0943 33.3227 15.6466 32.875 15.0943 32.875V34.875ZM57.3774 34.875C57.9296 34.875 58.3774 34.4273 58.3774 33.875C58.3774 33.3227 57.9296 32.875 57.3774 32.875V34.875ZM43.283 32.875C42.7307 32.875 42.283 33.3227 42.283 33.875C42.283 34.4273 42.7307 34.875 43.283 34.875V32.875ZM62.0755 26.625C61.5232 26.625 61.0755 27.0727 61.0755 27.625C61.0755 28.1773 61.5232 28.625 62.0755 28.625V26.625ZM63.6415 28.625C64.1938 28.625 64.6415 28.1773 64.6415 27.625C64.6415 27.0727 64.1938 26.625 63.6415 26.625V28.625ZM79.2737 22.45L80.2072 22.0914L80.1997 22.0718L80.1914 22.0526L79.2737 22.45ZM78.9182 22.9375L78.9713 21.9389L78.9448 21.9375H78.9182V22.9375ZM57.9333 22.9375L57.9277 23.9375H57.9333V22.9375ZM57.3774 22.3797L58.3774 22.3797V22.3797H57.3774ZM57.3774 12.5609L56.3774 12.5582V12.5609H57.3774ZM57.9411 12L57.9411 13H57.9411V12ZM74.0525 12L74.0531 11H74.0525V12ZM75.0235 12.6344L75.9411 12.237L75.9395 12.2333L75.0235 12.6344ZM57.3774 40.125V41.125H58.3774V40.125H57.3774ZM73.0377 32.875C72.4855 32.875 72.0377 33.3227 72.0377 33.875C72.0377 34.4273 72.4855 34.875 73.0377 34.875V32.875ZM79.3019 34.875C79.8542 34.875 80.3019 34.4273 80.3019 33.875C80.3019 33.3227 79.8542 32.875 79.3019 32.875V34.875ZM61.7623 39.125H58.851V41.125H61.7623V39.125ZM58.8863 39.1256C58.7456 39.1207 58.6132 39.0602 58.5179 38.9584L57.0575 40.3248C57.5148 40.8135 58.1472 41.1008 58.8158 41.1244L58.8863 39.1256ZM58.5179 38.9584C58.4227 38.8566 58.3722 38.7217 58.3768 38.5835L56.378 38.5165C56.3555 39.1857 56.6002 39.836 57.0575 40.3248L58.5179 38.9584ZM58.3774 38.55V24.5125H56.3774V38.55H58.3774ZM58.3768 24.479C58.3722 24.3407 58.4227 24.2059 58.5179 24.1041L57.0575 22.7377C56.6002 23.2265 56.3555 23.8768 56.378 24.546L58.3768 24.479ZM58.5179 24.1041C58.6132 24.0023 58.7456 23.9418 58.8863 23.9369L58.8158 21.9381C58.1472 21.9617 57.5148 22.249 57.0575 22.7377L58.5179 24.1041ZM58.851 23.9375H78.7256V21.9375H58.851V23.9375ZM78.6902 23.9369C78.6374 23.935 78.5854 23.9227 78.5372 23.9006L79.3717 22.083C79.1797 21.9948 78.9721 21.9456 78.761 21.9381L78.6902 23.9369ZM78.5372 23.9006C78.489 23.8784 78.4456 23.8469 78.4095 23.8078L79.8798 22.452C79.7365 22.2966 79.5638 22.1712 79.3717 22.083L78.5372 23.9006ZM78.4095 23.8078C78.3733 23.7686 78.3452 23.7225 78.3269 23.6721L80.2066 22.9888C80.1342 22.7899 80.0231 22.6074 79.8798 22.452L78.4095 23.8078ZM78.3269 23.6721C78.3086 23.6218 78.3005 23.5682 78.3031 23.5146L80.3008 23.6104C80.3109 23.399 80.2789 23.1877 80.2066 22.9888L78.3269 23.6721ZM78.3019 23.5625V37H80.3019V23.5625H78.3019ZM78.3025 37.0332C78.3203 37.5688 78.1245 38.09 77.7574 38.4824L79.2178 39.8488C79.9469 39.0696 80.3368 38.0331 80.3014 36.9668L78.3025 37.0332ZM77.7574 38.4824C77.3902 38.8749 76.8814 39.1065 76.3426 39.1256L76.4136 41.1244C77.4803 41.0865 78.4888 40.628 79.2178 39.8488L77.7574 38.4824ZM76.3781 39.125H71.9932V41.125H76.3781V39.125ZM13.5283 2.0625H54.2453V0.0625H13.5283V2.0625ZM54.2453 2.0625C54.8115 2.0625 55.354 2.28693 55.7537 2.6857L57.1663 1.26989C56.3912 0.496549 55.3405 0.0625 54.2453 0.0625V2.0625ZM55.7537 2.6857C56.1533 3.08439 56.3774 3.62464 56.3774 4.1875H58.3774C58.3774 3.09275 57.9415 2.0433 57.1663 1.26989L55.7537 2.6857ZM56.3774 4.1875V27.625H58.3774V4.1875H56.3774ZM57.3774 26.625H10.3962V28.625H57.3774V26.625ZM11.3962 27.625V4.1875H9.39623V27.625H11.3962ZM11.3962 4.1875C11.3962 3.62465 11.6203 3.08439 12.0199 2.6857L10.6073 1.26989C9.83212 2.0433 9.39623 3.09275 9.39623 4.1875H11.3962ZM12.0199 2.6857C12.4196 2.28693 12.9621 2.0625 13.5283 2.0625V0.0625C12.4331 0.0625 11.3824 0.49655 10.6073 1.26989L12.0199 2.6857ZM1 14.5625H24.4906V12.5625H1V14.5625ZM2.56604 19.25H26.0566V17.25H2.56604V19.25ZM7.26415 23.9375H32.3208V21.9375H7.26415V23.9375ZM10.3962 34.875H15.0943V32.875H10.3962V34.875ZM57.3774 32.875H43.283V34.875H57.3774V32.875ZM62.0755 28.625H63.6415V26.625H62.0755V28.625ZM72.0377 42.4688C72.0377 44.9346 70.0336 46.9375 67.5566 46.9375V48.9375C71.1339 48.9375 74.0377 46.0435 74.0377 42.4688H72.0377ZM67.5566 46.9375C65.0796 46.9375 63.0755 44.9346 63.0755 42.4688H61.0755C61.0755 46.0435 63.9793 48.9375 67.5566 48.9375V46.9375ZM63.0755 42.4688C63.0755 40.0029 65.0796 38 67.5566 38V36C63.9793 36 61.0755 38.894 61.0755 42.4688H63.0755ZM67.5566 38C70.0336 38 72.0377 40.0029 72.0377 42.4688H74.0377C74.0377 38.894 71.1339 36 67.5566 36V38ZM78.3402 22.8086C78.3018 22.7087 78.289 22.6007 78.3031 22.4944L80.2858 22.7571C80.3156 22.532 80.2886 22.3032 80.2072 22.0914L78.3402 22.8086ZM78.3031 22.4944C78.3172 22.3881 78.3577 22.2872 78.4206 22.2009L80.0366 23.3793C80.1702 23.196 80.256 22.9822 80.2858 22.7571L78.3031 22.4944ZM78.4206 22.2009C78.4836 22.1145 78.567 22.0455 78.6632 21.9998L79.5212 23.8064C79.7258 23.7093 79.903 23.5625 80.0366 23.3793L78.4206 22.2009ZM78.6632 21.9998C78.7593 21.9542 78.8652 21.9333 78.9713 21.9389L78.8651 23.9361C79.0912 23.9481 79.3167 23.9036 79.5212 23.8064L78.6632 21.9998ZM78.9182 21.9375H57.9333V23.9375H78.9182V21.9375ZM57.9389 21.9375C58.0547 21.9382 58.166 21.9845 58.2483 22.0671L56.8317 23.4789C57.1224 23.7706 57.5165 23.9352 57.9277 23.9375L57.9389 21.9375ZM58.2483 22.0671C58.3307 22.1498 58.3774 22.2621 58.3774 22.3797L56.3774 22.3797C56.3774 22.792 56.541 23.1872 56.8317 23.4789L58.2483 22.0671ZM58.3774 22.3797V12.5609H56.3774V22.3797H58.3774ZM58.3774 12.5637C58.377 12.6803 58.3304 12.7915 58.2484 12.8731L56.8377 11.4553C56.5443 11.7472 56.3785 12.1438 56.3774 12.5582L58.3774 12.5637ZM58.2484 12.8731C58.1664 12.9546 58.0559 13 57.9411 13L57.9411 11C57.5279 11 57.131 11.1635 56.8377 11.4553L58.2484 12.8731ZM57.9411 13H74.0525V11H57.9411V13ZM74.0519 13C74.0642 13 74.0759 13.0036 74.0858 13.01L75.1797 11.3357C74.8447 11.1168 74.4532 11.0002 74.0531 11L74.0519 13ZM74.0858 13.01C74.0956 13.0164 74.103 13.0254 74.1074 13.0354L75.9395 12.2333C75.7789 11.8665 75.5147 11.5546 75.1797 11.3357L74.0858 13.01ZM74.1058 13.0317L78.356 22.8474L80.1914 22.0526L75.9411 12.237L74.1058 13.0317ZM26.6226 42.4688C26.6226 44.9346 24.6185 46.9375 22.1415 46.9375V48.9375C25.7188 48.9375 28.6226 46.0435 28.6226 42.4688H26.6226ZM22.1415 46.9375C19.6645 46.9375 17.6604 44.9346 17.6604 42.4688H15.6604C15.6604 46.0435 18.5642 48.9375 22.1415 48.9375V46.9375ZM17.6604 42.4688C17.6604 40.0029 19.6645 38 22.1415 38V36C18.5642 36 15.6604 38.894 15.6604 42.4688H17.6604ZM22.1415 38C24.6185 38 26.6226 40.0029 26.6226 42.4688H28.6226C28.6226 38.894 25.7188 36 22.1415 36V38ZM16.6604 39.125H13.5283V41.125H16.6604V39.125ZM13.5283 39.125C12.9621 39.125 12.4196 38.9006 12.0199 38.5018L10.6073 39.9176C11.3824 40.691 12.4331 41.125 13.5283 41.125V39.125ZM12.0199 38.5018C11.6203 38.1031 11.3962 37.5629 11.3962 37H9.39623C9.39623 38.0947 9.83212 39.1442 10.6073 39.9176L12.0199 38.5018ZM11.3962 37V27.625H9.39623V37H11.3962ZM56.3774 27.625V40.125H58.3774V27.625H56.3774ZM57.3774 39.125H27.6226V41.125H57.3774V39.125ZM73.0377 34.875H79.3019V32.875H73.0377V34.875Z" fill="#232020"/>
</svg>
