<svg width="10" height="19" viewBox="0 0 10 19" fill="none" xmlns="http://www.w3.org/2000/svg">
<path d="M9.87673 5.17411C9.77628 5.07366 9.64235 5.0067 9.49726 5.0067C9.45262 5.0067 9.40798 5.01786 9.36333 5.02902L4.94369 6.12277L6.85217 0.955356C6.88566 0.888392 6.90798 0.821428 6.90798 0.754463C6.90798 0.497767 6.68476 0.285713 6.40574 0.285713H2.74503C2.51065 0.285713 2.30976 0.430803 2.25396 0.642856L0.0106547 9.85045C-0.0228274 10.0067 0.0218155 10.1741 0.155744 10.2857C0.24503 10.3638 0.378958 10.4085 0.501726 10.4085C0.546369 10.4085 0.591012 10.4085 0.635655 10.3973L5.1669 9.27009L2.96824 18.2879C2.91244 18.5223 3.05753 18.7567 3.30307 18.8348C3.35887 18.846 3.41467 18.8571 3.45932 18.8571C3.66021 18.8571 3.83878 18.7455 3.92807 18.5781L9.95485 5.66518C10.033 5.49777 9.99949 5.30804 9.87673 5.17411Z" fill="#FFCF20"/>
</svg>
