<svg xmlns="http://www.w3.org/2000/svg" xmlns:xlink="http://www.w3.org/1999/xlink" width="1026" height="596" viewBox="0 0 1026 596">
  <defs>
    <clipPath id="clip-Artboard_1">
      <rect width="1026" height="596"/>
    </clipPath>
  </defs>
  <g id="Artboard_1" data-name="Artboard – 1" clip-path="url(#clip-Artboard_1)">
    <rect width="1026" height="596" fill="#fff"/>
    <g id="Group_20" data-name="Group 20" transform="translate(1732 -1687)">
      <path id="Path_224" data-name="Path 224" d="M-1402.46,1906.168c-24.935-20.876-50.008-41.513-66.388-70.321a60.051,60.051,0,0,1-6.094-14.181c-5.71-21.492,2.394-38.363,24.088-50.91,17.964-10.39,37.509-16.12,57.625-20.427,46.322-9.92,93.242-15.447,140.384-19.378,57.261-4.775,114.627-7.526,172.065-8.879,3.766-.088,7.506-1.1,11.462.271-6.507,1.627-13.007,3.282-19.521,4.878-42.518,10.42-85.311,19.625-128.056,29.049-35.1,7.739-70.293,15.207-104.554,26.289-20.8,6.727-41.124,14.532-58.9,27.729-23.886,17.733-31.741,41.68-27.494,70.394C-1406.581,1889.223-1404.357,1897.541-1402.46,1906.168Z" fill="#010506"/>
      <path id="Path_225" data-name="Path 225" d="M-1478.746,2076.926c9.366-4.593,18.667-9.325,28.109-13.755,54.095-25.376,108.309-50.5,162.3-76.087,25.285-11.98,50.071-24.993,72.534-41.9,12.983-9.773,24.711-20.731,32.561-35.314,9.753-18.118,9.232-36.749,3.023-55.642a198.6,198.6,0,0,0-12.426-28.676c6.422,3.49,12.881,6.913,19.259,10.483,20.09,11.246,39.617,23.311,56.123,39.622a80.485,80.485,0,0,1,12.45,15.552c10.11,16.716,8.972,33.42-3.588,48.563-13.141,15.842-30.1,26.592-48.4,35.39-48.753,23.434-99.82,40.67-151.44,56.436C-1364.433,2048.76-1421.3,2063.415-1478.746,2076.926Z" fill="#010506"/>
      <path id="Path_226" data-name="Path 226" d="M-1233.032,1889.805c0,9.653-.2,19.312.1,28.954.117,3.706-1.1,5.674-4.3,7.379q-27.969,14.885-55.735,30.147a4.459,4.459,0,0,1-4.985,0q-28.033-15.289-56.19-30.35c-2.811-1.5-4-3.241-3.969-6.6.183-19.637.153-39.277.036-58.916-.019-3.205.9-4.988,3.893-6.583,18.641-9.922,37.152-20.089,55.656-30.265a5.4,5.4,0,0,1,5.934,0q27.985,15.393,56.137,30.483c2.6,1.388,3.478,2.89,3.423,5.79-.191,9.982-.074,19.971-.074,29.957Z" fill="#020606"/>
      <path id="Path_227" data-name="Path 227" d="M-1020.358,2178.375c0,24.768-.118,49.066.11,73.36.04,4.3-1.261,5.444-5.311,5.174-4.809-.32-9.66-.191-14.486-.031-2.708.089-3.825-.621-3.818-3.6q.138-57.7.014-115.407c-.006-2.935,1.044-3.7,3.8-3.631,6.658.175,14.044-1.69,19.778.627,5.632,2.276,7.551,10.083,10.973,15.527,13.19,20.986,26.2,42.082,39.3,63.126.151.244.522.352,1.143.749,1.092-3.623.455-7.215.47-10.692q.138-32.472-.09-64.945c-.029-3.467.763-4.69,4.4-4.437a109.2,109.2,0,0,0,14.98-.016c3.678-.253,4.382,1.136,4.372,4.508q-.171,56.955-.022,113.909c.008,3.183-.707,4.7-4.124,4.29a17.882,17.882,0,0,0-5.482-.046c-11.934,2.345-18.672-2.836-24.616-13.287-12.491-21.966-26.569-43.031-40.014-64.454C-1019.119,2178.875-1019.5,2178.81-1020.358,2178.375Z" fill="#010506"/>
      <path id="Path_228" data-name="Path 228" d="M-1617.4,2170.2a32.518,32.518,0,0,0-4.483.032c-5.039.71-8.46.086-9.751-6.168-1.025-4.964-5.134-8.426-10.39-9.852-8.111-2.2-16.173-2.168-24,1-3.959,1.6-7.34,4.075-7.575,8.979-.243,5.1,2.89,7.967,6.983,9.948,8.78,4.248,18.46,5.534,27.736,8.147,6.9,1.944,13.866,3.8,20.14,7.3,12.355,6.9,17.981,17.661,17.712,31.765-.265,13.916-6.207,25.031-18.553,30.812-21.316,9.98-43.283,10.535-64.131-1.587-11.58-6.732-16.2-18.5-18.35-31.273-.389-2.314.731-2.8,2.771-2.934q9.219-.623,18.415-1.582c2.194-.23,3.021.287,3.737,2.6,5.681,18.36,22.587,25.951,40.31,18.245a18.016,18.016,0,0,0,8.607-7.325c4.229-7.111,2.2-14.379-5.276-17.966-7.875-3.776-16.526-5.035-24.875-7.255-9.356-2.488-18.9-4.812-26.6-10.941-20.269-16.135-16.376-45.473,7.984-55.433,17.913-7.324,36.606-6.964,54.259,1.882,11.1,5.561,16.6,15.394,18.077,27.618.291,2.413-.269,3.341-2.769,3.331-3.326-.015-6.653.272-9.979.429Z" fill="#010606"/>
      <path id="Path_229" data-name="Path 229" d="M-1323.7,2224c2.942-8.637,5.673-16.589,8.359-24.556,6.9-20.482,13.874-40.943,20.586-61.488.981-3,2.335-3.827,5.271-3.738,6.321.19,12.654.121,18.979.016,2.815-.046,3.884.277,2.658,3.612q-21.164,57.585-41.976,115.3c-1.018,2.819-2.365,3.864-5.353,3.758-6.153-.218-12.33-.292-18.475.021-3.427.174-4.914-.963-6.071-4.183-10.342-28.79-20.872-57.513-31.347-86.255-3.471-9.527-6.834-19.095-10.475-28.557-1.145-2.977-.622-3.789,2.533-3.709,6.49.164,12.994.243,19.476-.034,3.26-.139,4.526,1,5.564,4.048,9.488,27.852,19.173,55.636,28.822,83.433A16.544,16.544,0,0,0-1323.7,2224Z" fill="#010605"/>
      <path id="Path_230" data-name="Path 230" d="M-845.46,2195.089c0,18.973-.144,37.948.112,56.918.056,4.159-1.273,5.115-5.073,4.9a134.758,134.758,0,0,0-15.474-.01c-3.756.222-4.718-.964-4.7-4.736.17-31.787.105-63.576.107-95.364,0-6.157.185-12.324-.095-18.47-.156-3.448,1.152-4.249,4.311-4.125a158.029,158.029,0,0,0,16.473-.025c3.705-.241,4.413,1.127,4.388,4.491-.138,18.806-.066,37.613-.066,56.419Z" fill="#010705"/>
      <path id="Path_231" data-name="Path 231" d="M-902.12,2318.56c21.318,0,42.637.09,63.953-.09,3.483-.03,3.079,1.787,3.325,4.015.33,3-.486,4.055-3.72,4.044-32.48-.109-64.961-.058-97.441-.054-9.993,0-19.987-.126-29.976.065-3.114.06-4.009-.866-3.916-3.939.085-2.828.538-4.109,3.832-4.086,21.313.147,42.628.076,63.943.076Z" fill="#040404"/>
      <path id="Path_232" data-name="Path 232" d="M-1645.671,2326.527c-20.8,0-41.6-.067-62.4.065-3.525.022-5.206-.666-4.783-4.649.267-2.505.793-3.307,3.5-3.3q61.654.175,123.309.107a20.5,20.5,0,0,0,3.489-.03c3.247-.563,4.687.218,4.821,3.989.139,3.911-1.756,3.821-4.535,3.812-21.135-.066-42.27-.036-63.4-.036Z" fill="#040404"/>
      <path id="Path_233" data-name="Path 233" d="M-1039.143,2307.952c0,9.129.019,17.106-.018,25.083-.006,1.368.557,3.223-1.875,3.225-2.257,0-2.086-1.6-2.085-3.142.006-9.478-.036-18.956.007-28.433.006-1.339-.7-3.17,1.578-3.568,1.883-.33,3.076.5,4.081,2.093,4.883,7.722,9.844,15.4,14.8,23.072.494.765.586,1.928,2.322,2.163,0-7.975-.03-15.854.026-23.732.011-1.471-.846-3.689,1.944-3.635,2.682.051,1.941,2.218,1.951,3.715.066,9.144.11,18.29.014,27.433-.015,1.413.923,3.564-1.609,4.051-2.163.416-3.259-.925-4.318-2.6-4.981-7.855-10.055-15.651-15.1-23.462C-1037.754,2309.715-1038.15,2309.258-1039.143,2307.952Z" fill="#0c0b0c"/>
      <path id="Path_234" data-name="Path 234" d="M-1535.009,2318.073c0-4.652.03-9.3-.012-13.954-.014-1.576-.127-2.987,2.1-3.137,2.552-.173,2.576,1.414,2.557,3.2-.031,2.824.222,5.674-.086,8.465-.358,3.254,1.036,3.8,3.935,3.853,11.193.2,11.14.3,11.294-10.97.023-1.649-1.354-4.371,2.1-4.5,3.527-.132,2.282,2.608,2.3,4.29.113,9.135.09,18.272.091,27.409,0,1.6.425,3.486-2.174,3.589s-2.391-1.674-2.38-3.363c.005-.665,0-1.329,0-1.994-.017-11.483-.014-11.41-11.736-11.008-2.515.086-3.648.667-3.438,3.4a79.084,79.084,0,0,1,.04,8.965c-.059,1.607.917,3.927-2.15,4.031-3,.1-2.416-2.1-2.433-3.817C-1535.045,2327.708-1535.013,2322.89-1535.009,2318.073Z" fill="#121213"/>
      <path id="Path_235" data-name="Path 235" d="M-1341.794,2318.914c0,4.823-.016,9.647.011,14.471.009,1.633-.108,2.963-2.309,2.961-2.227,0-2.263-1.372-2.243-2.976.044-3.493-.036-6.989.072-10.479.067-2.15-.788-3.109-2.933-2.89a3.336,3.336,0,0,1-.5.005c-11.92-.588-11.92-.588-11.924,11.237,0,1-.016,2,.009,2.994.037,1.461-.7,2.057-2.113,2.116-1.671.069-2.421-.595-2.415-2.318q.054-15.222.019-30.442c0-1.546.471-2.514,2.232-2.592,2.216-.1,2.4,1.226,2.273,2.9a11.981,11.981,0,0,0-.011,2c.316,3.419-1.589,8.678.81,9.858,3.5,1.722,8.391.643,12.689.693,1.993.023,1.828-1.488,1.827-2.833,0-3-.052-5.99.029-8.983.041-1.5-.725-3.554,2.057-3.6,2.542-.039,2.416,1.709,2.417,3.409Q-1341.793,2311.677-1341.794,2318.914Z" fill="#111112"/>
      <path id="Path_236" data-name="Path 236" d="M-1160.066,2299.667c-4.577,2.939-4.444,5.829-2.459,10.132,2.935,6.361,2.613,13.27-.6,19.767a12.219,12.219,0,0,1-11.569,7.238,11.929,11.929,0,0,1-11.558-7.247,24.92,24.92,0,0,1,.234-22.141,12.452,12.452,0,0,1,15.787-5.83c2.464,1.066,3.715,1.239,4.967-1.42C-1164.456,2298.442-1162.637,2298.429-1160.066,2299.667Z" fill="#090909"/>
      <path id="Path_237" data-name="Path 237" d="M-1106.035,2319.44c0-4.487.166-8.983-.059-13.459-.149-2.966,1.125-4.165,3.843-4.641a27.447,27.447,0,0,1,10.4-.2c4.446.924,7.656,3.385,8.371,8.065.672,4.4-.9,7.926-5.283,9.587-1.821.69-2.054,1.324-.763,2.731,2.984,3.252,4,7.612,6.229,11.3.557.922,2.373,2.294.489,3.269a3.015,3.015,0,0,1-4.261-1.408c-1.315-2.683-2.654-5.354-3.926-8.058-1.009-2.146-2.19-4.131-4.438-5.183-4.188-1.959-6.211-.733-6.269,3.807-.032,2.492.071,4.986.017,7.477-.034,1.531.633,3.548-2.065,3.625-2.661.075-2.256-1.835-2.261-3.457-.015-4.487-.006-8.975-.006-13.462Z" fill="#0f0f10"/>
      <path id="Path_238" data-name="Path 238" d="M-1446.761,2328.187q0-11.91.007-23.82c0-1.42-.525-3.307,1.817-3.322s1.87,1.9,1.877,3.307c.049,9.328.091,18.656.028,27.983-.009,1.32.836,3.226-1.251,3.811-2.027.568-3.36-.4-4.482-2.2-4.66-7.485-9.473-14.876-14.188-22.327-.6-.943-.95-2.04-2.613-2.772,0,7.975.034,15.687-.027,23.4-.013,1.651.786,4.1-2.212,3.993-2.731-.1-1.725-2.405-1.739-3.826q-.132-13.74-.027-27.482c.008-1.338-.853-3.235,1.241-3.8,2.056-.554,3.461.616,4.53,2.3q7.359,11.586,14.75,23.152c.425.667.886,1.31,1.331,1.963Z" fill="#0a0a0b"/>
      <path id="Path_239" data-name="Path 239" d="M-1410.526,2325.81c-1.136,3.285,2.579,8.01-2.479,10.02-7.028,2.792-15.492.573-19.6-4.639-4.385-5.56-4.866-16.786-1-23.223,3.431-5.706,10.11-8.337,17.894-6.853,1.562.3,4.348-.1,3.918,2.577-.447,2.79-2.612,1.353-4.372,1.068-4.973-.8-9.851-.458-12.918,4.21-3.885,5.913-3.833,12.3-.743,18.5,2.252,4.523,6.3,6,11.276,5.647,2.64-.186,4.072-.939,3.806-3.843a23.374,23.374,0,0,1,.055-4.982c.416-3.348-.563-5.082-4.291-4.517-1.374.208-3.472.618-3.538-1.526-.079-2.6,2.2-1.827,3.738-1.845C-1410.38,2316.312-1410.379,2316.322-1410.526,2325.81Z" fill="#0c0c0d"/>
      <path id="Path_240" data-name="Path 240" d="M-984.063,2326.154c-.8,3.071,2.041,7.408-1.507,9.178a17.4,17.4,0,0,1-16.384-.584c-6.325-3.441-9.223-12.365-7.276-21.227,1.652-7.521,6.813-12.1,14.651-12.676a30.457,30.457,0,0,1,6.914.563c1.217.193,2.835.472,2.38,2.449-.413,1.792-1.481,1.615-3.029,1.276-5.423-1.188-10.864-1.361-14.323,3.979-3.832,5.916-3.826,12.318-.683,18.544,2.3,4.551,7.995,6.621,12.909,5.256a2.5,2.5,0,0,0,2.176-2.8,36.991,36.991,0,0,1,0-5.49c.421-3.5-.448-5.457-4.493-4.846-1.316.2-3.427.6-3.3-1.759.127-2.28,2.137-1.525,3.515-1.559C-984.036,2316.251-984.036,2316.261-984.063,2326.154Z" fill="#0a0a0b"/>
      <path id="Path_241" data-name="Path 241" d="M-1219.4,2318.428c0-4.82.022-9.641-.013-14.461-.011-1.595-.076-3,2.217-2.946,2.311.057,2.116,1.592,2.11,3.095-.012,2.992.081,5.99-.086,8.974-.148,2.63.933,3.345,3.486,3.454,11.843.5,11.81.582,11.98-11.242.023-1.6-1.014-4.032,2-4.169,3.367-.154,2.432,2.509,2.446,4.279.067,9.141.031,18.284.01,27.425,0,1.618.37,3.483-2.293,3.454s-2.2-1.9-2.212-3.5c-.015-2.992-.184-6,.085-8.971.29-3.2-1.06-3.874-4-3.918-11.454-.171-11.452-.266-11.444,11.28a1.549,1.549,0,0,1-.006.5c-.563,1.568,1.534,4.411-1.968,4.549s-2.182-2.662-2.237-4.339c-.147-4.483-.05-8.974-.05-13.462Z" fill="#080708"/>
      <path id="Path_242" data-name="Path 242" d="M-1260.581,2334.473c.386,1.411-.418,1.714-1.586,1.765a2.934,2.934,0,0,1-3.366-2.214c-.89-2.644-.9-6.663-3.321-7.462-3.459-1.145-7.534-.407-11.344-.513-1.776-.049-2.691.773-3.192,2.465-.61,2.065-1.476,4.054-2.229,6.076-.676,1.811-2.171,1.961-3.7,1.606-1.878-.436-.966-1.786-.606-2.762,3.683-9.964,7.418-19.91,11.112-29.87.567-1.528,1.322-2.52,3.2-2.495,1.684.022,2.8.374,3.437,2.119,3.77,10.286,7.621,20.542,11.444,30.809C-1260.672,2334.152-1260.631,2334.314-1260.581,2334.473Z" fill="#09090a"/>
      <path id="Path_243" data-name="Path 243" d="M-1048.341,2334.941c0,.775-.368,1.307-1.158,1.244-.963-.077-2.194-.011-2.8-.564-.8-.725-1.033-2.03-1.617-3.022-1.222-2.074-.478-5.8-3.273-6.255a45.981,45.981,0,0,0-12.431-.035c-2.317.26-1.747,3.28-2.689,4.949-.731,1.293-1.038,2.832-1.805,4.1-.836,1.377-2.406,1.175-3.612.73-1.294-.477-.635-1.637-.3-2.535,3.756-9.964,7.539-19.918,11.26-29.9.562-1.505,1.06-2.646,3.059-2.57,1.907.073,3.065.643,3.753,2.515,3.731,10.147,7.547,20.263,11.33,30.391C-1048.505,2334.3-1048.433,2334.622-1048.341,2334.941Z" fill="#080809"/>
      <path id="Path_244" data-name="Path 244" d="M-1540.4,2301.905c-3.924,4.42-7.736,8.946-11.821,13.212-1.888,1.971-2,3.276-.174,5.376,4.218,4.848,8.161,9.934,12.388,15.137-3.309,1.339-5.216.238-7.026-2.131a94.151,94.151,0,0,0-12.185-13.456c0,4.362-.051,8.726.024,13.087.032,1.866-.116,3.329-2.542,3.206-2.3-.116-1.974-1.738-1.975-3.209-.005-9.468-.026-18.935,0-28.4,0-1.577-.447-3.569,2.119-3.672,2.966-.119,2.381,2.035,2.375,3.817-.012,3.6,0,7.206,0,11.436,7.148-4.289,9.368-13.932,17.737-15.642Z" fill="#0d0d0e"/>
      <path id="Path_245" data-name="Path 245" d="M-1394,2317.657a19.238,19.238,0,0,1,3.121-11.163c3.508-5.083,10.865-7.368,16.464-5.059,1.139.47,2.195.974,1.818,2.485-.447,1.8-1.586,1.525-3.083,1.257-8.241-1.476-12.109,1.339-13.519,9.672a21.31,21.31,0,0,0,.819,11.316c2.057,5.4,6.278,7.738,11.867,6.445,1.672-.386,3.348-1.418,3.917,1.07.612,2.677-1.839,2.315-3.239,2.647C-1386.789,2338.921-1394.418,2331.344-1394,2317.657Z" fill="#0f0f10"/>
      <path id="Path_246" data-name="Path 246" d="M-1124.926,2320.79c0-3.994-.139-7.994.047-11.98.137-2.955-.706-4.422-3.91-3.889a17.157,17.157,0,0,1-3.49.027,1.709,1.709,0,0,1-1.837-1.87,1.684,1.684,0,0,1,1.8-1.9c6.324-.025,12.647-.006,18.971.006a1.641,1.641,0,0,1,1.826,1.836,1.739,1.739,0,0,1-2.284,1.9c-7.152-1.485-7.061,2.832-6.831,7.913.3,6.644.1,13.311.071,19.968-.006,1.571.524,3.537-2.18,3.51-2.625-.027-2.217-1.909-2.222-3.533-.013-3.994,0-7.989,0-11.983Z" fill="#020203"/>
      <path id="Path_247" data-name="Path 247" d="M-1238.388,2320.223c0-3.82-.186-7.653.064-11.456.208-3.163-1.022-4.223-4-3.814a20.8,20.8,0,0,1-2.986.063c-1.4-.01-2.177-.664-2.074-2.141a1.714,1.714,0,0,1,1.967-1.723q9.219-.024,18.438-.04c1.454-.005,2.134.715,2.055,2.137a1.7,1.7,0,0,1-1.922,1.763,14.364,14.364,0,0,1-2.485-.076c-4.16-.76-4.9,1.208-4.756,4.969.3,7.628.1,15.276.073,22.915-.006,1.573.475,3.512-2.258,3.428-2.706-.083-2.1-2.011-2.108-3.57C-1238.413,2328.527-1238.392,2324.374-1238.388,2320.223Z" fill="#101011"/>
      <path id="Path_248" data-name="Path 248" d="M-1311.472,2318.474c.006-4.815.021-9.629,0-14.444-.007-1.586-.014-3.026,2.215-3.034,2.264-.008,2.188,1.49,2.186,3.04-.01,7.8.333,15.628-.14,23.4-.286,4.7,1.341,5.864,5.57,5.242a38.387,38.387,0,0,1,5.972-.054c1.057.012,1.977.288,2.092,1.577.141,1.566-.8,2.022-2.133,2.022-4.65,0-9.3-.018-13.951-.022-2.042,0-1.821-1.447-1.818-2.787Q-1311.468,2325.946-1311.472,2318.474Z" fill="#0d0d0e"/>
      <path id="Path_249" data-name="Path 249" d="M-1154.082,2318.545c0-4.825.007-9.65,0-14.475,0-1.555-.081-3.032,2.2-3.014,2.2.017,2.264,1.375,2.259,3q-.045,14.477-.024,28.952c0,1.727.144,3.442-2.448,3.287-2.372-.142-1.908-1.851-1.916-3.271-.028-4.826-.011-9.651-.011-14.477Z" fill="#050507"/>
      <path id="Path_250" data-name="Path 250" d="M-1333.977,2318.2c0-4.638-.018-9.276.01-13.914.008-1.447-.29-3.211,1.973-3.258,2-.041,2.408,1.306,2.406,2.991q-.018,14.659.017,29.319c0,1.652-.176,2.955-2.343,2.905-2.341-.054-2.025-1.675-2.028-3.135q-.016-7.453-.005-14.908Z" fill="#040507"/>
      <path id="Path_251" data-name="Path 251" d="M-1483.876,2298.183c-.736,1.746-2.054,1.508-2.846.77-2.329-2.167-4.444-2.216-6.786-.081-.7.639-1.9,1.158-2.619.15-.754-1.061.4-1.686,1.065-2.375,4-4.12,6.218-4.11,10.051.1C-1484.592,2297.209-1484.235,2297.726-1483.876,2298.183Z" fill="#262628"/>
      <path id="Path_252" data-name="Path 252" d="M-1331.691,2290.635c2.269.175,4.613.61,4.674,3.382.07,3.13-3,4.042-4.954,5.687-.137.116-.97-.273-1.172-.611-.621-1.042-.111-1.876.739-2.564,2.355-1.905,3.384-3.4-1-3.243-.923.033-1.851-.379-1.61-1.323C-1334.57,2290.226-1332.888,2290.9-1331.691,2290.635Z" fill="#252528"/>
      <path id="Path_253" data-name="Path 253" d="M-1172.256,2298.45c-.471,1.651-1.333,2.037-2.559,1.037-1.776-1.449-3.506-2.954-5.223-4.472-.594-.525-1.372-1.215-.6-2.01a2.792,2.792,0,0,1,2.093-.943C-1175.189,2292.961-1174.211,2296.253-1172.256,2298.45Z" fill="#2f2f31"/>
      <path id="Path_254" data-name="Path 254" d="M-1273.139,2299.481c-4.693.309-6.392-3.1-8.79-5.3-.495-.454-.221-1.241.4-1.687a2.43,2.43,0,0,1,3.2.135A22.056,22.056,0,0,1-1273.139,2299.481Z" fill="#201f22"/>
      <path id="Path_255" data-name="Path 255" d="M-1270.649,1865.19c-17.44,9.49-34.313,9.528-51.468.206,1.265-2.8,3.4-1.536,4.9-1.409,3.719.314,5.4-.492,5.119-4.8-.437-6.617.4-13.34-.318-19.908-.653-5.97,2.781-8.831,7.127-9.377,7.068-.886,14.46-2.227,21.368,1.675,2.2,1.241,3.014,2.545,2.947,5.054-.2,7.47.07,14.955-.224,22.419-.153,3.9.951,5.5,5.014,4.935C-1274.6,1863.769-1272.607,1862.984-1270.649,1865.19Z" fill="#fefefe"/>
      <path id="Path_256" data-name="Path 256" d="M-1352.019,1899.507c3.32-.486,7.066.841,6.593-3.815-.5-4.893-4.815-.647-6.758-3.082,2.481-3.635,5.087-7.407,7.639-11.216.88-1.313,2.128-1.39,3.5-1.382,4.819.027,9.638.01,15.474.01-2.594,3.946-4.6,7.486-7.1,10.635-1.846,2.327-1.931,4.066-.429,6.637,9.482,16.231,18.787,32.565,28.155,48.862.334.581.718,1.131.036,1.968Z" fill="#fdfdfd"/>
      <path id="Path_257" data-name="Path 257" d="M-1265.7,1880c5.906,0,10.722.055,15.535-.029a4.448,4.448,0,0,1,4.2,2.1c2.361,3.559,4.813,7.057,7.083,10.367-1.532,3.034-6.613-2.067-6.712,3.6-.08,4.63,3.483,2.767,6.627,3.508l-47.388,48.831-.526-.358q9.023-15.9,18.045-31.8c3.7-6.511,7.262-13.1,11.143-19.5,1.364-2.249,1.206-3.715-.366-5.718C-1260.6,1887.774-1262.773,1884.264-1265.7,1880Z" fill="#fdfdfd"/>
      <path id="Path_258" data-name="Path 258" d="M-1304.485,1884.482c3.193-.349,3.758-3.145,5.247-4.735,2.29-2.448,3.305-2.991,5.047.111,1.323,2.354,6.325,3.653,1.918,7.564-.5.44-.075,1.917-.074,2.914.007,14.149-.286,28.309.224,42.44.135,3.74-3.15,4.506-3.874,7.269-.273,1.04-5.084-3.563-5.1-6.1-.048-6.991,0-13.983,0-20.974.006-7.324-.071-14.65.053-21.972C-1301,1888.277-1300.961,1885.782-1304.485,1884.482Z" fill="#fafafa"/>
      <path id="Path_259" data-name="Path 259" d="M-1107.4,2252.65c-5.233-12.415-10.248-24.922-15.344-37.4-10.441-25.554-20.944-51.084-31.249-76.692-1.328-3.3-2.979-4.571-6.573-4.367a148.981,148.981,0,0,1-17.478.007c-3.522-.215-5,1.2-6.168,4.24-5.367,13.974-10.895,27.886-16.406,41.8-9.614,24.28-19.192,48.575-28.963,72.792-1.408,3.489-.3,3.889,2.758,3.828,6.327-.124,12.664-.191,18.984.049,2.917.111,4.035-1.063,4.923-3.641,2.38-6.917,5.229-13.674,7.555-20.607.945-2.82,2.14-3.884,5.253-3.8,9.821.251,19.652.091,29.479.121,5.32.016,11.685-1.695,15.677.633,4.275,2.492,4.656,9.517,6.642,14.6,4.931,12.62,4.908,12.629,18.271,12.592,3.331,0,6.68-.211,9.989.054C-1106.086,2257.182-1106.076,2255.789-1107.4,2252.65Zm-47.99-44.4c-9.315-.121-18.631-.089-27.947-.11-1.493,0-2.776-.123-2-2.208,5.2-13.915,10.389-27.835,15.947-42.731,3.617,9.41,6.876,17.835,10.094,26.276,1.953,5.123,3.791,10.291,5.79,15.4C-1152.695,2206.935-1152.311,2208.295-1155.389,2208.254Z" fill="#020506"/>
      <path id="Path_260" data-name="Path 260" d="M-1420.284,2252.82q-23.629-57.467-46.949-115.06c-1.016-2.5-2.256-3.651-5.1-3.56q-9.735.309-19.486,0c-2.823-.092-4.122.933-5.092,3.509-3.754,9.965-7.694,19.862-11.617,29.763q-17.005,42.918-34.126,85.791c-1.256,3.124-.613,3.673,2.434,3.6,6.326-.155,12.669-.284,18.983.025,3.374.166,4.657-1.267,5.635-4.151,2.244-6.615,4.917-13.087,7.107-19.719.974-2.951,2.265-4.18,5.591-4.131,13.99.206,27.986.136,41.978.024,2.679-.021,4.246.555,5.107,3.4,1.2,3.967,3.026,7.742,4.507,11.628,4.909,12.882,4.9,12.887,18.6,12.913,3.165,0,6.341-.169,9.492.046C-1419.781,2257.125-1418.775,2256.49-1420.284,2252.82Zm-47.667-44.626q-14.2-.079-28.412-.039c-2.059,0-2.636-.654-1.858-2.709,5.163-13.632,10.244-27.3,15.832-42.23,5.744,15.093,10.978,28.867,16.233,42.633C-1465.455,2207.684-1466.155,2208.2-1467.951,2208.194Z" fill="#010506"/>
      <path id="Path_261" data-name="Path 261" d="M-781.654,2055.846a44.7,44.7,0,0,0-44.714,44.77,44.7,44.7,0,0,0,45.112,44.878c25.085-.108,44.749-20.038,44.663-45.267A44.652,44.652,0,0,0-781.654,2055.846Zm-.4,82.6c-21.628-.623-37.609-17.656-37.158-39.389.394-18.949,17.4-37.439,40.365-36.1,19.615,1.145,35.84,18.589,35.2,38.818C-744.311,2122.491-761.635,2139.033-782.055,2138.445Z" fill="#040404"/>
      <path id="Path_262" data-name="Path 262" d="M-1165.357,2319.335a16.283,16.283,0,0,1-1.575,8.3c-1.521,3.224-3.866,5.341-7.645,5.332a8.186,8.186,0,0,1-7.8-5.171,21.7,21.7,0,0,1-.69-16.456c1.392-4.081,4.109-6.921,8.746-6.736,4.4.176,6.646,3.171,8.068,6.989A20.6,20.6,0,0,1-1165.357,2319.335Z" fill="#fcfcfc"/>
      <path id="Path_263" data-name="Path 263" d="M-1101.434,2311.781c-.664-4.763-.608-8.108,5.047-7.8,5.29.29,8.676,2.6,8.8,6.807.131,4.615-3.694,7.028-10.607,7.073C-1104.27,2317.9-1100.54,2313.288-1101.434,2311.781Z" fill="#f9f9f9"/>
      <path id="Path_264" data-name="Path 264" d="M-1478.507,2308.024c-2.28-5.034-6.667-6.86-11.882-7.1-5.24-.245-8.758,2.417-11.242,6.781-1.963,3.447-2.275,7.24-2.369,11.072a20.28,20.28,0,0,0,2.214,10.622c2.435,4.932,6.332,7.6,11.929,7.408,5.523-.191,9.62-2.868,11.64-7.936A25.816,25.816,0,0,0-1478.507,2308.024Zm-3.512,18.86c-1.558,3.542-4.009,6.155-8.29,6.07-4.248-.085-6.789-2.661-8.052-6.325a23.442,23.442,0,0,1,0-15.687c1.306-3.716,3.751-6.225,8.038-6.323,4.347-.1,6.7,2.437,8.163,6.108a21.068,21.068,0,0,1,1.377,8.75A17.811,17.811,0,0,1-1482.019,2326.884Z" fill="#0f0e0f"/>
      <path id="Path_265" data-name="Path 265" d="M-1275.508,2305.295c2.071,5.825,3.691,10.437,5.356,15.033.583,1.611.34,2.58-1.616,2.512a7.771,7.771,0,0,0-.988.044c-9.053.839-9.053.839-6.2-7.5C-1277.949,2312.428-1276.937,2309.474-1275.508,2305.295Z" fill="#ececec"/>
      <path id="Path_266" data-name="Path 266" d="M-1063.4,2305.618c2.023,5.444,3.777,10.166,5.53,14.889.494,1.33.343,2.319-1.358,2.35-2.651.047-5.3.061-7.955.067-1.751,0-2.421-.747-1.757-2.5C-1067.158,2315.721-1065.411,2311-1063.4,2305.618Z" fill="#eaeaea"/>
      <path id="Path_267" data-name="Path 267" d="M-774.428,2102.85c.445-1.091,1.411-.836,2.116-1.108,7.788-3,10.905-7.824,9.821-15.213-.984-6.713-5.625-10.383-14.006-10.659-7.316-.241-14.644-.092-21.963-.267-2.331-.056-3.2.561-3.179,3.06.13,14.308.116,28.618.09,42.926,0,2.15.3,3.392,3,3.253,2.342-.12,3.737-.328,3.64-3.193-.172-5.151.026-10.315-.069-15.47-.041-2.2.431-3.062,2.982-3.313,7.591-.746,13.291,1.6,16.99,8.5,1.488,2.775,3.761,5.158,5.048,8,2.283,5.046,5.92,6.3,11.688,4.99C-763.864,2116.9-767.126,2108.4-774.428,2102.85Zm-1.544-6.06c-5.594.6-11.274.4-16.917.542-1.487.037-2.072-.812-2.076-2.179,0-1.33.03-2.659.038-3.989.061-10.071.06-10.071,10.083-10.152a72.967,72.967,0,0,1,8.934.535c3.949.7,6.686,2.929,6.713,7.38C-769.169,2093.507-771.729,2096.333-775.972,2096.79Z" fill="#050505"/>
    </g>
  </g>
</svg>
