<svg width="20" height="20" viewBox="0 0 20 20" fill="none" xmlns="http://www.w3.org/2000/svg">
<path d="M14.6264 19.9533C13.8501 19.9475 13.0772 19.8501 12.3237 19.663C9.7217 19.0352 7.0423 17.4426 4.78026 15.1786C2.51823 12.9146 0.923685 10.2347 0.295894 7.63516C-0.365148 4.90067 0.106316 2.56121 1.62195 1.04558L2.0547 0.612826C2.44734 0.220977 2.97939 0.000904083 3.53411 0.000904083C4.08882 0.000904083 4.62088 0.220977 5.01351 0.612826L7.50036 3.09918C7.89245 3.49168 8.11269 4.02379 8.11269 4.57858C8.11269 5.13338 7.89245 5.66548 7.50036 6.05799L6.03138 7.52647C6.7356 8.76221 7.69341 9.99893 8.82542 11.1309C9.95743 12.263 11.1952 13.2213 12.4304 13.9255L13.8989 12.4565C14.0931 12.2622 14.3238 12.108 14.5776 12.0029C14.8314 11.8977 15.1035 11.8436 15.3783 11.8436C15.653 11.8436 15.9251 11.8977 16.179 12.0029C16.4328 12.108 16.6634 12.2622 16.8577 12.4565L19.344 14.9429C19.7362 15.3352 19.9565 15.8673 19.9565 16.422C19.9565 16.9768 19.7362 17.5088 19.344 17.9012L18.9108 18.3339C17.8423 19.4044 16.3634 19.9533 14.6264 19.9533ZM3.53411 1.48876C3.45487 1.48836 3.37635 1.50379 3.30315 1.53412C3.22995 1.56446 3.16353 1.6091 3.1078 1.66543L2.67455 2.09819C1.53957 3.23317 1.20805 5.07585 1.74105 7.28379C2.30532 9.62275 3.75793 12.053 5.83088 14.1255C7.90383 16.1979 10.3336 17.6491 12.6731 18.2153C14.8815 18.7483 16.7232 18.4168 17.8582 17.2818L18.2909 16.8491C18.404 16.7359 18.4675 16.5825 18.4675 16.4225C18.4675 16.2625 18.404 16.1091 18.2909 15.996L15.8051 13.5096C15.6919 13.3965 15.5385 13.333 15.3785 13.333C15.2186 13.333 15.0651 13.3965 14.952 13.5096L13.0904 15.3711C12.9787 15.4829 12.8344 15.5562 12.6782 15.5805C12.5221 15.6048 12.3623 15.5787 12.2219 15.5061C10.6959 14.717 9.15743 13.5682 7.77282 12.1835C6.3882 10.7989 5.2418 9.26146 4.45073 7.73541C4.37809 7.59511 4.35196 7.43533 4.37614 7.2792C4.40032 7.12307 4.47354 6.97868 4.58522 6.86692L6.44726 5.00538C6.56033 4.89222 6.62384 4.7388 6.62384 4.57883C6.62384 4.41886 6.56033 4.26544 6.44726 4.15228L3.96091 1.66543C3.905 1.6092 3.83849 1.56463 3.76522 1.5343C3.69196 1.50397 3.6134 1.48849 3.53411 1.48876Z" fill="#232020"/>
<path d="M15.4219 11.004C15.2245 11.004 15.0351 10.9255 14.8955 10.7859C14.7559 10.6463 14.6775 10.457 14.6775 10.2596C14.676 8.95361 14.1566 7.70157 13.2333 6.77808C12.3099 5.85459 11.0579 5.33508 9.75192 5.3335C9.55449 5.3335 9.36515 5.25507 9.22554 5.11546C9.08594 4.97586 9.00751 4.78651 9.00751 4.58908C9.00751 4.39165 9.08594 4.20231 9.22554 4.0627C9.36515 3.9231 9.55449 3.84467 9.75192 3.84467C13.2889 3.84467 16.1663 6.72308 16.1663 10.2596C16.1663 10.457 16.0879 10.6463 15.9483 10.7859C15.8087 10.9255 15.6193 11.004 15.4219 11.004Z" fill="#232020"/>
<path d="M18.5683 11.004C18.3709 11.004 18.1815 10.9256 18.0419 10.7859C17.9023 10.6463 17.8239 10.457 17.8239 10.2596C17.8239 5.80844 14.2011 2.1871 9.75192 2.1871C9.55449 2.1871 9.36515 2.10867 9.22554 1.96907C9.08594 1.82946 9.00751 1.64011 9.00751 1.44268C9.00751 1.24525 9.08594 1.05591 9.22554 0.9163C9.36515 0.776695 9.55449 0.698265 9.75192 0.698265C15.0239 0.698265 19.3127 4.9876 19.3127 10.2596C19.3127 10.457 19.2343 10.6463 19.0947 10.7859C18.9551 10.9256 18.7657 11.004 18.5683 11.004Z" fill="#232020"/>
</svg>
