<svg width="54" height="49" viewBox="0 0 54 49" fill="none" xmlns="http://www.w3.org/2000/svg">
<path fill-rule="evenodd" clip-rule="evenodd" d="M54 42.6455C54 45.8795 51.3728 48.5 48.1304 48.5H5.86957C2.62722 48.5 0 45.8795 0 42.6455V8.68929C0 6.10276 2.10248 4.00567 4.69565 4.00567H28.3747L37.8822 0.570242C38.4844 0.351283 39.1512 0.661573 39.3707 1.2599L40.372 4.00567H44.6087C47.2019 4.00567 49.3043 6.10276 49.3043 8.68929V11.0311C51.8975 11.0311 54 13.1282 54 15.7147V42.6455ZM4.69565 6.34748C3.39965 6.34748 2.34783 7.39661 2.34783 8.68929C2.34783 9.98196 3.39965 11.0311 4.69565 11.0311H8.73978H8.96165C8.97691 11.0252 8.9863 11.0124 9.00156 11.0065L21.8935 6.34748H4.69565ZM38.8307 6.55941L37.584 3.13569H37.5828L35.1751 4.00567H35.1786L28.7057 6.34748H28.694L15.7351 11.0311H40.4601L38.8307 6.55941ZM46.9565 8.68929C46.9565 7.39661 45.9047 6.34748 44.6087 6.34748H41.2243L42.9312 11.0311H46.9565V8.68929ZM49.3043 13.3729H4.69565C3.83635 13.3729 3.04043 13.1258 2.34783 12.723V42.6455C2.34783 44.5857 3.92557 46.1582 5.86957 46.1582H48.1304C50.0756 46.1582 51.6522 44.5857 51.6522 42.6455V34.4492H46.9565C44.3633 34.4492 42.2609 32.3521 42.2609 29.7655C42.2609 27.179 44.3633 25.0819 46.9565 25.0819H51.6522V15.7147C51.6522 14.422 50.6003 13.3729 49.3043 13.3729ZM51.6522 32.1074V27.4237H46.9565C45.6605 27.4237 44.6087 28.4729 44.6087 29.7655C44.6087 31.0582 45.6605 32.1074 46.9565 32.1074H51.6522ZM46.9565 28.5946H49.3043V30.9365H46.9565V28.5946Z" fill="#232020"/>
</svg>
