<svg width="20" height="20" viewBox="0 0 20 20" fill="none" xmlns="http://www.w3.org/2000/svg">
<path d="M6.70573 10.1953H3.42448V11.862H6.70573V10.1953ZM6.70573 6.875H3.42448V8.52865H6.70573V6.875ZM16.5755 13.5286H12.1354V15.1953H16.5755V13.5286ZM16.5755 10.1953H7.82552V11.862H16.5755V10.1953ZM16.5755 6.875H7.82552V8.52865H16.5755V6.875ZM18.3333 18.0729C18.3333 18.2161 18.2161 18.3333 18.0729 18.3333H1.92708C1.78385 18.3333 1.66667 18.2161 1.66667 18.0729V1.92708C1.66667 1.78385 1.78385 1.66667 1.92708 1.66667H2.34375L7.26562 5L10 2.77344L12.7344 5L17.6562 1.66667H18.0729C18.2161 1.66667 18.3333 1.78385 18.3333 1.92708V18.0729ZM7.20052 3.61979L4.32292 1.66667H9.60938L7.20052 3.61979ZM12.7995 3.61979L10.3906 1.66667H15.6771L12.7995 3.61979ZM20 1.92708C20 0.859375 19.1406 0 18.0729 0H1.92708C0.859375 0 0 0.859375 0 1.92708V18.0729C0 19.1406 0.859375 20 1.92708 20H18.0729C19.1406 20 20 19.1406 20 18.0729V1.92708Z" fill="#232020"/>
</svg>
