<svg width="20" height="20" viewBox="0 0 20 20" fill="none" xmlns="http://www.w3.org/2000/svg">
<path d="M10 0C4.47545 0 0 4.47545 0 10C0 15.5022 4.46429 20 10 20C15.5469 20 20 15.4911 20 10C20 4.47545 15.5246 0 10 0ZM16.9085 15.0781C16.5067 13.0804 15.5357 11.4286 13.4933 11.4286C12.5893 12.3103 11.3616 12.8571 10 12.8571C8.63839 12.8571 7.41071 12.3103 6.5067 11.4286C4.46429 11.4286 3.4933 13.0804 3.09152 15.0781C2.05357 13.6496 1.42857 11.8973 1.42857 10C1.42857 5.27902 5.27902 1.42857 10 1.42857C14.721 1.42857 18.5714 5.27902 18.5714 10C18.5714 11.8973 17.9464 13.6496 16.9085 15.0781ZM14.2857 7.85714C14.2857 10.2232 12.3661 12.1429 10 12.1429C7.63393 12.1429 5.71429 10.2232 5.71429 7.85714C5.71429 5.49107 7.63393 3.57143 10 3.57143C12.3661 3.57143 14.2857 5.49107 14.2857 7.85714Z" fill="#232020"/>
</svg>
