<svg width="40" height="40" viewBox="0 0 40 40" fill="none" xmlns="http://www.w3.org/2000/svg">
<rect width="40" height="40" rx="5" fill="url(#paint0_linear_907_2064)"/>
<path d="M24.1439 19.8582C24.1439 22.2187 22.2187 24.1439 19.8582 24.1439C17.4977 24.1439 15.5725 22.2187 15.5725 19.8582C15.5725 17.4977 17.4977 15.5725 19.8582 15.5725C22.2187 15.5725 24.1439 17.4977 24.1439 19.8582ZM26.4542 19.8582C26.4542 16.2086 23.5077 13.2622 19.8582 13.2622C16.2086 13.2622 13.2622 16.2086 13.2622 19.8582C13.2622 23.5077 16.2086 26.4542 19.8582 26.4542C23.5077 26.4542 26.4542 23.5077 26.4542 19.8582ZM28.2622 12.9944C28.2622 12.1406 27.5758 11.4542 26.722 11.4542C25.8682 11.4542 25.1819 12.1406 25.1819 12.9944C25.1819 13.8481 25.8682 14.5345 26.722 14.5345C27.5758 14.5345 28.2622 13.8481 28.2622 12.9944ZM19.8582 9.31132C21.7332 9.31132 25.751 9.16064 27.4419 9.83029C28.0278 10.0647 28.4631 10.3493 28.9151 10.8013C29.3671 11.2533 29.6517 11.6885 29.8861 12.2745C30.5557 13.9653 30.4051 17.9832 30.4051 19.8582C30.4051 21.7332 30.5557 25.751 29.8861 27.4419C29.6517 28.0278 29.3671 28.4631 28.9151 28.9151C28.4631 29.3671 28.0278 29.6517 27.4419 29.8861C25.751 30.5557 21.7332 30.4051 19.8582 30.4051C17.9832 30.4051 13.9653 30.5557 12.2745 29.8861C11.6885 29.6517 11.2533 29.3671 10.8013 28.9151C10.3493 28.4631 10.0647 28.0278 9.83029 27.4419C9.16064 25.751 9.31131 21.7332 9.31131 19.8582C9.31131 17.9832 9.16064 13.9653 9.83029 12.2745C10.0647 11.6885 10.3493 11.2533 10.8013 10.8013C11.2533 10.3493 11.6885 10.0647 12.2745 9.83029C13.9653 9.16064 17.9832 9.31132 19.8582 9.31132ZM32.7153 19.8582C32.7153 18.0836 32.7321 16.3258 32.6316 14.5513C32.5312 12.4921 32.0624 10.6673 30.5557 9.16064C29.049 7.65395 27.2243 7.1852 25.1651 7.08475C23.3906 6.98431 21.6327 7.00105 19.8582 7.00105C18.0836 7.00105 16.3258 6.98431 14.5513 7.08475C12.4921 7.1852 10.6673 7.65395 9.16064 9.16064C7.65395 10.6673 7.1852 12.4921 7.08475 14.5513C6.98431 16.3258 7.00105 18.0836 7.00105 19.8582C7.00105 21.6327 6.98431 23.3906 7.08475 25.1651C7.1852 27.2243 7.65395 29.049 9.16064 30.5557C10.6673 32.0624 12.4921 32.5312 14.5513 32.6316C16.3258 32.7321 18.0836 32.7153 19.8582 32.7153C21.6327 32.7153 23.3906 32.7321 25.1651 32.6316C27.2243 32.5312 29.049 32.0624 30.5557 30.5557C32.0624 29.049 32.5312 27.2243 32.6316 25.1651C32.7321 23.3906 32.7153 21.6327 32.7153 19.8582Z" fill="white"/>
<defs>
<linearGradient id="paint0_linear_907_2064" x1="44" y1="-2.5" x2="-2.5" y2="45" gradientUnits="userSpaceOnUse">
<stop stop-color="#BA00B2"/>
<stop offset="0.577317" stop-color="#F0000E"/>
<stop offset="1" stop-color="#FFCF20"/>
</linearGradient>
</defs>
</svg>
