<svg width="40" height="40" viewBox="0 0 40 40" fill="none" xmlns="http://www.w3.org/2000/svg">
<rect width="40" height="40" rx="5" fill="#232020"/>
<g clip-path="url(#clip0_907_2062)">
<path d="M32.0002 17.6595C29.7399 17.6648 27.5351 16.9676 25.6972 15.6663V24.742C25.6966 26.4229 25.1772 28.0635 24.2084 29.4445C23.2397 30.8256 21.8678 31.8811 20.2761 32.4701C18.6845 33.0591 16.949 33.1534 15.3017 32.7404C13.6544 32.3274 12.1738 31.4268 11.058 30.1591C9.94212 28.8913 9.24415 27.3168 9.05739 25.6461C8.87063 23.9753 9.20399 22.288 10.0129 20.8098C10.8218 19.3315 12.0677 18.1328 13.584 17.3738C15.1003 16.6148 16.8147 16.3318 18.4979 16.5626V21.1273C17.7277 20.8877 16.9005 20.8949 16.1347 21.148C15.3688 21.401 14.7033 21.887 14.2333 22.5365C13.7633 23.1859 13.5128 23.9657 13.5176 24.7644C13.5223 25.563 13.7821 26.3398 14.2598 26.9838C14.7375 27.6277 15.4087 28.1059 16.1775 28.35C16.9464 28.5941 17.7735 28.5917 18.5409 28.3431C19.3083 28.0945 19.9766 27.6124 20.4504 26.9657C20.9243 26.3189 21.1794 25.5407 21.1794 24.742V7H25.6972C25.6941 7.37738 25.7261 7.75424 25.7927 8.12582C25.9497 8.95532 26.2761 9.74443 26.752 10.4449C27.2279 11.1453 27.8433 11.7424 28.5604 12.1995C29.5807 12.8668 30.777 13.2225 32.0002 13.2222V17.6595Z" fill="white"/>
</g>
<defs>
<clipPath id="clip0_907_2062">
<rect width="23" height="26" fill="white" transform="translate(9 7)"/>
</clipPath>
</defs>
</svg>
