<svg width="48" height="30" viewBox="0 0 48 30" fill="none" xmlns="http://www.w3.org/2000/svg">
<path d="M36.863 12.6235C36.3892 13.9315 35.9156 15.2391 35.4335 16.5691C36.2107 16.5691 36.9468 16.5691 37.727 16.5691C37.4492 15.2379 37.1774 13.9333 36.9053 12.6292C36.8911 12.6273 36.8771 12.6255 36.863 12.6235Z" fill="#303030"/>
<path d="M43.1012 0.0859375H4.89807C2.90808 0.0859375 1.2887 1.70532 1.2887 3.69605V26.3045C1.2887 28.2952 2.90808 29.9146 4.89807 29.9146H43.1012C45.0919 29.9146 46.7113 28.2952 46.7113 26.3045V3.69605C46.7113 1.70532 45.0919 0.0859375 43.1012 0.0859375ZM28.0538 16.5484C27.7697 16.3231 27.4431 16.1461 27.1196 15.9777C26.581 15.6974 26.0483 15.4133 25.58 15.0196C24.244 13.8973 24.4146 12.3285 25.1376 11.2729C25.7325 10.405 26.6072 9.94581 27.6014 9.69458C27.9181 9.61437 28.2473 9.58481 28.5699 9.53033C28.6179 9.52227 28.6644 9.5057 28.7118 9.49298C29.0655 9.49298 29.4195 9.49298 29.7734 9.49298C30.0828 9.54389 30.3941 9.58361 30.7001 9.64962C31.0014 9.71453 31.298 9.80435 31.5956 9.88692C31.6676 9.90678 31.7358 9.93938 31.8201 9.97197C31.6604 10.7166 31.5027 11.4542 31.3448 12.1919C30.9823 12.0776 30.6356 11.9476 30.278 11.8606C29.6346 11.7042 28.9779 11.6372 28.3298 11.8115C28.0955 11.8748 27.8597 12.0068 27.6764 12.1669C27.3656 12.438 27.3651 12.8341 27.6651 13.1172C27.8695 13.3099 28.1092 13.471 28.3518 13.6147C28.835 13.9003 29.3425 14.1454 29.8192 14.4412C30.46 14.839 30.9935 15.3466 31.2072 16.1034C31.5177 17.2025 31.1784 18.6679 29.9544 19.5515C29.2501 20.0597 28.4531 20.326 27.6047 20.4347C26.2701 20.606 24.9603 20.4751 23.6847 20.0372C23.6138 20.013 23.5455 19.9812 23.4552 19.9444C23.6202 19.1713 23.7835 18.4041 23.9513 17.6194C24.0591 17.6662 24.1518 17.7034 24.2417 17.7462C25.0308 18.1205 25.863 18.2998 26.7349 18.2895C27.135 18.2851 27.5271 18.2233 27.8882 18.0325C28.5476 17.6842 28.6349 17.0083 28.0538 16.5484ZM23.6155 10.7256C22.9484 13.846 22.279 16.966 21.6188 20.0883C21.5765 20.2881 21.5053 20.3466 21.3012 20.3428C20.5496 20.329 19.7976 20.3376 19.0457 20.3376C18.9767 20.3376 18.9081 20.3376 18.8042 20.3376C19.5678 16.771 20.3251 13.2331 21.0824 9.69761C22.0034 9.69761 22.9053 9.69761 23.8301 9.69761C23.7567 10.0492 23.6873 10.3877 23.6155 10.7256ZM19.7433 10.0604C18.3323 13.4284 16.9198 16.7962 15.5117 20.1655C15.4578 20.294 15.3937 20.3428 15.2497 20.3417C14.3969 20.3343 13.5438 20.3357 12.6908 20.341C12.5622 20.3421 12.5079 20.3102 12.4734 20.1764C11.7611 17.4031 11.0366 14.6327 10.3307 11.8581C10.2039 11.3602 9.95388 11.016 9.479 10.8046C8.69658 10.4568 7.88342 10.2142 7.05276 10.0204C7.01642 10.0117 6.98126 9.99743 6.94565 9.98589C6.94565 9.96035 6.94565 9.93536 6.94565 9.90981C6.97119 9.70061 7.10303 9.68157 7.28678 9.68231C8.73368 9.69009 10.1808 9.68679 11.6277 9.68706C12.3464 9.68706 12.8393 10.0874 12.9731 10.7937C13.3434 12.746 13.7095 14.6992 14.0771 16.6522C14.0899 16.7201 14.1068 16.7872 14.1614 16.8685C15.1083 14.4769 16.055 12.0856 17.0003 9.69759C17.9615 9.69759 18.9127 9.69759 19.8869 9.69759C19.8347 9.82962 19.7913 9.9458 19.7433 10.0604ZM38.5161 20.3282C38.4359 19.9492 38.3526 19.5698 38.2754 19.1893C38.1851 18.7425 38.1874 18.7422 37.7245 18.7422C36.758 18.7422 35.7915 18.7446 34.8248 18.7394C34.6901 18.7387 34.6245 18.7774 34.5805 18.9086C34.4349 19.3385 34.2793 19.7651 34.1174 20.1892C34.0944 20.249 34.0139 20.3282 33.9591 20.329C33.0438 20.3376 32.1282 20.335 31.1926 20.335C31.2163 20.2683 31.2313 20.2154 31.2525 20.1652C32.5988 16.9492 33.9456 13.733 35.2934 10.5171C35.5217 9.97197 35.9441 9.69081 36.5307 9.69008C37.2884 9.68934 38.046 9.68981 38.8314 9.68981C39.5714 13.2316 40.3106 16.7692 41.054 20.3282C40.1914 20.3282 39.3648 20.3282 38.5161 20.3282Z" fill="#303030"/>
</svg>
