<svg width="40" height="40" viewBox="0 0 40 40" fill="none" xmlns="http://www.w3.org/2000/svg">
<rect width="40" height="40" rx="5" fill="#FF0101"/>
<path d="M23.0135 25.7433C23.0135 25.0804 22.8205 24.7338 22.4345 24.7338C22.2119 24.7338 21.9892 24.8393 21.7665 25.0653V29.6004C21.9892 29.8265 22.2119 29.9319 22.4345 29.9319C22.8205 29.9319 23.0135 29.6004 23.0135 28.9224V25.7433ZM28.031 25.7584C28.031 25.0804 27.8084 24.7338 27.363 24.7338C26.9177 24.7338 26.695 25.0804 26.695 25.7584V26.4515H28.031V25.7584ZM13.691 22.4738V31.0469H12.2065V22.4738H10.6478V21.0575H15.2794V22.4738H13.691ZM17.9663 31.0469V30.2333C17.4318 30.851 16.9271 31.1523 16.4521 31.1523C16.0216 31.1523 15.7099 30.9715 15.5911 30.5949C15.5169 30.3689 15.4723 30.0223 15.4723 29.495V23.6038H16.7935V29.0882C16.7935 29.4046 16.7935 29.5703 16.8084 29.6155C16.8381 29.8265 16.942 29.9319 17.1201 29.9319C17.3873 29.9319 17.6694 29.721 17.9663 29.2991V23.6038H19.2874V31.0469H17.9663ZM24.3347 28.817C24.3347 29.51 24.305 30.0073 24.2011 30.3237C24.0378 30.8661 23.6667 31.1523 23.1471 31.1523C22.6721 31.1523 22.2119 30.8811 21.7665 30.3237V31.0469H20.4453V21.0575H21.7665V24.327C22.197 23.7846 22.6572 23.5134 23.1471 23.5134C23.6667 23.5134 24.0378 23.7997 24.2011 24.3571C24.305 24.6585 24.3347 25.1557 24.3347 25.8488V28.817ZM29.3522 28.6663C29.3522 29.1032 29.3522 29.4046 29.3225 29.5402C29.2928 29.8415 29.1741 30.1127 29.0108 30.3538C28.6545 30.8811 28.1053 31.1523 27.4076 31.1523C26.7099 31.1523 26.1903 30.8962 25.8043 30.3839C25.5223 30.0223 25.3738 29.4347 25.3738 28.6362V26.0296C25.3738 25.231 25.5074 24.6585 25.7895 24.2818C26.1754 23.7695 26.695 23.5134 27.3779 23.5134C28.0459 23.5134 28.5655 23.7695 28.9514 24.2818C29.2186 24.6585 29.3522 25.231 29.3522 26.0296V27.5815H26.695V28.8923C26.695 29.5854 26.9177 29.9319 27.3779 29.9319C27.7045 29.9319 27.8974 29.7511 27.9717 29.3895C27.9865 29.3142 28.0014 29.0128 28.0014 28.4704H29.3522V28.6663ZM20.3266 14.9102C20.3266 15.6032 20.1336 15.9648 19.6883 15.9648C19.2578 15.9648 19.0499 15.6032 19.0499 14.9102V11.7461C19.0499 11.053 19.2578 10.7065 19.6883 10.7065C20.1336 10.7065 20.3266 11.053 20.3266 11.7461V14.9102ZM31 26.2254C31 24.4777 31 22.6395 30.614 20.952C30.3468 19.7617 29.3819 18.8878 28.2389 18.7522C25.5074 18.4509 22.7463 18.4509 20 18.4509C17.2537 18.4509 14.4926 18.4509 11.776 18.7522C10.6181 18.8878 9.66802 19.7617 9.38596 20.952C9.01484 22.6395 9 24.4777 9 26.2254C9 27.9581 9 29.8114 9.38596 31.4989C9.65317 32.6892 10.6181 33.5631 11.7611 33.6836C14.4926 34 17.2537 34 20 34C22.7463 34 25.5074 34 28.2389 33.6836C29.3819 33.5631 30.332 32.6892 30.614 31.4989C30.9852 29.8114 31 27.9581 31 26.2254ZM16.1849 7L15.1754 10.9626L14.1215 7H12.5479C12.8596 7.93415 13.1862 8.88337 13.5128 9.81752C13.9879 11.2188 14.2848 12.2734 14.4184 13.0117V17.0949H15.9028V13.0117L17.6991 7H16.1849ZM21.6775 12.0173C21.6775 11.2188 21.5439 10.6311 21.2618 10.2545C20.8907 9.74219 20.3711 9.48605 19.6883 9.48605C19.0202 9.48605 18.5007 9.74219 18.1296 10.2545C17.8475 10.6311 17.7139 11.2188 17.7139 12.0173V14.654C17.7139 15.4526 17.8475 16.0402 18.1296 16.4319C18.5007 16.9442 19.0202 17.2003 19.6883 17.2003C20.3711 17.2003 20.8907 16.9442 21.2618 16.4319C21.5439 16.0552 21.6775 15.4526 21.6775 14.654V12.0173ZM26.6505 9.57645H25.2996V15.317C25.0027 15.7539 24.7206 15.9648 24.4534 15.9648C24.2753 15.9648 24.1714 15.8443 24.1417 15.6334C24.1269 15.6032 24.1269 15.4224 24.1269 15.106V9.57645H22.776V15.5128C22.776 16.0552 22.8205 16.4169 22.8947 16.6429C23.0283 17.0195 23.3401 17.2003 23.7706 17.2003C24.2605 17.2003 24.7652 16.899 25.2996 16.2662V17.0949H26.6505V9.57645Z" fill="white"/>
</svg>
