<svg width="40" height="40" viewBox="0 0 40 40" fill="none" xmlns="http://www.w3.org/2000/svg">
<rect width="40" height="40" rx="5" fill="#0180C7"/>
<path d="M8.35271 24.208C9.84118 24.208 11.2409 24.1973 12.6308 24.208C13.4096 24.2188 13.8334 24.5726 13.9123 25.2481C14.001 26.0951 13.5476 26.6634 12.6998 26.6741C11.1029 26.6956 9.51589 26.6849 7.91898 26.6849C7.45568 26.6849 7.00224 26.7063 6.53894 26.6741C5.96721 26.642 5.40534 26.5133 5.12933 25.87C4.85332 25.2266 5.05047 24.6476 5.42505 24.1223C6.9431 22.0207 8.471 19.9084 9.9989 17.8069C10.0876 17.6782 10.1763 17.5496 10.2651 17.4316C10.1665 17.2493 10.0285 17.3351 9.91018 17.3244C8.84558 17.3137 7.77112 17.3244 6.70652 17.3137C6.46008 17.3137 6.21365 17.2815 5.97707 17.2279C5.41519 17.0885 5.07018 16.4773 5.19833 15.8769C5.28705 15.4695 5.58277 15.1371 5.95735 15.0406C6.19393 14.9762 6.44037 14.9441 6.6868 14.9441C8.44143 14.9334 10.2059 14.9334 11.9605 14.9441C12.276 14.9334 12.5816 14.9762 12.8871 15.062C13.5574 15.3086 13.8433 15.9841 13.5772 16.6918C13.3406 17.303 12.966 17.8283 12.5914 18.3537C11.3001 20.1443 10.0088 21.9242 8.71744 23.6934C8.609 23.8328 8.51043 23.9721 8.35271 24.208Z" fill="white"/>
<path d="M19.7872 18.5679C20.0238 18.2355 20.2702 17.9246 20.6744 17.8388C21.4531 17.6672 22.1825 18.2141 22.1924 19.0719C22.222 21.2164 22.2121 23.3609 22.1924 25.5054C22.1924 26.0629 21.8572 26.5562 21.3742 26.717C20.8814 26.9207 20.3195 26.7599 19.9942 26.2988C19.8266 26.0737 19.7576 26.0308 19.521 26.2345C18.624 27.028 17.6087 27.1673 16.5145 26.7813C14.7599 26.1594 14.0403 24.669 13.8432 22.8569C13.6362 20.8947 14.2375 19.222 15.8541 18.1926C17.1947 17.3241 18.555 17.3992 19.7872 18.5679ZM16.2977 22.4816C16.3174 22.9534 16.4554 23.4038 16.7117 23.779C17.244 24.5511 18.2593 24.7119 18.9789 24.1329C19.0972 24.0364 19.2056 23.9184 19.3042 23.779C19.8562 22.9641 19.8562 21.6238 19.3042 20.8089C19.0282 20.3907 18.5944 20.1441 18.1311 20.1334C17.0468 20.0583 16.2878 20.9698 16.2977 22.4816ZM26.6184 22.546C26.5395 19.7903 28.2054 17.7316 30.5712 17.6565C33.0848 17.5707 34.9183 19.4043 34.9972 22.0849C35.076 24.7977 33.5481 26.717 31.1922 26.9743C28.6194 27.2531 26.5789 25.2266 26.6184 22.546ZM29.0926 22.2886C29.0729 22.8247 29.2207 23.3501 29.5165 23.7898C30.0586 24.5618 31.0739 24.7119 31.7837 24.1114C31.8921 24.0257 31.9808 23.9184 32.0695 23.8112C32.6413 22.9963 32.6413 21.6238 32.0794 20.8089C31.8034 20.4015 31.3697 20.1441 30.9064 20.1334C29.8418 20.0691 29.0926 20.9483 29.0926 22.2886ZM25.7509 20.4122C25.7509 22.0742 25.7608 23.7362 25.7509 25.3981C25.7608 26.1594 25.2088 26.7921 24.5089 26.8135C24.3906 26.8135 24.2625 26.8028 24.1442 26.7706C23.6513 26.6312 23.2767 26.0629 23.2767 25.3874V16.8631C23.2767 16.3591 23.2669 15.8659 23.2767 15.3619C23.2866 14.5363 23.7696 14.0002 24.499 14.0002C25.2482 13.9894 25.7509 14.5256 25.7509 15.3834C25.7608 17.0561 25.7509 18.7395 25.7509 20.4122Z" fill="white"/>
</svg>
